<?xml version="1.0" encoding="UTF-8"?>
<svg width="140px" height="142px" viewBox="0 0 140 142" version="1.1" xmlns="http://www.w3.org/2000/svg" xmlns:xlink="http://www.w3.org/1999/xlink">
    <title>3A72A3EF-1017-41D2-8EF9-71FBB63DB849</title>
    <defs>
        <linearGradient x1="50%" y1="-23.5799442%" x2="50%" y2="100%" id="linearGradient-1">
            <stop stop-color="#ABE7F9" offset="0%"></stop>
            <stop stop-color="#72CAF1" offset="100%"></stop>
        </linearGradient>
    </defs>
    <g id="App" stroke="none" stroke-width="1" fill="none" fill-rule="evenodd">
        <g id="Tennant-Find-|-Splash" transform="translate(-125.000000, -351.000000)" fill="url(#linearGradient-1)">
            <path d="M243.232653,459.494382 L262.877973,480.038234 C265.672408,482.960396 265.71216,487.767652 262.966108,490.741788 C260.220057,493.715682 255.702894,493.757745 252.908459,490.835583 L233.181818,470.20688 C236.934611,467.093502 240.312148,463.492774 243.232653,459.494382 Z M188.636364,351 C223.781757,351 252.272727,379.573288 252.272727,414.820225 C252.272727,450.067162 223.781757,478.640449 188.636364,478.640449 C153.49097,478.640449 125,450.067162 125,414.820225 C125,379.573288 153.49097,351 188.636364,351 Z M189.272335,385.462921 L160.636364,409.022631 L160.636364,444.177528 L170.324733,444.177528 L170.324733,413.671802 L189.272335,398.0821 L189.381895,398.172452 L208.220879,413.671802 L208.220879,434.343414 L189.20955,434.343414 L189.20955,410.934291 L179.521181,418.905884 L179.521181,444.126804 L217.909091,444.126804 L217.909091,409.022631 L189.272335,385.462921 Z" id="tenant-find-logo"></path>
        </g>
    </g>
</svg>